<svg xmlns="http://www.w3.org/2000/svg" viewBox="0 0 128 128"><g><path fill="#F34F29" d="M124.8 58.6L69.4 3.2c-4.3-4.3-11.3-4.3-15.6 0l-13.1 13.1 15.6 15.6c4.5-1.5 9.7-.5 13.3 3.1 3.6 3.6 4.6 8.8 3.1 13.3l14.7 14.7c4.5-1.5 9.7-.5 13.3 3.1 4.7 4.7 4.7 12.3 0 17-4.7 4.7-12.3 4.7-17 0-3.6-3.6-4.6-8.8-3.1-13.3L54.7 38.7c-4.5 1.5-9.7.5-13.3-3.1-4.7-4.7-4.7-12.3 0-17 4.7-4.7 12.3-4.7 17 0l55.4 55.4c4.3 4.3 4.3 11.3 0 15.6l-13.1 13.1-15.6-15.6c-4.5 1.5-9.7.5-13.3-3.1-3.6-3.6-4.6-8.8-3.1-13.3L73.3 73.3c-4.5 1.5-9.7.5-13.3-3.1-4.7-4.7-4.7-12.3 0-17 4.7-4.7 12.3-4.7 17 0l55.4 55.4c4.3 4.3 4.3 11.3 0 15.6l-13.1 13.1-15.6-15.6c-4.5 1.5-9.7.5-13.3-3.1-3.6-3.6-4.6-8.8-3.1-13.3l-14.7-14.7c-4.5 1.5-9.7.5-13.3-3.1-4.7-4.7-4.7-12.3 0-17 4.7-4.7 12.3-4.7 17 0z"/></g></svg> 