<svg xmlns="http://www.w3.org/2000/svg" viewBox="0 0 128 128"><path fill="#E44D26" d="M19.1 114.1L8.1 0h111.8l-11 114.1-44.9 12.5z"/><path fill="#F16529" d="M64 117.2l36.3-10.1 9.4-104.7H64z"/><path fill="#EBEBEB" d="M64 66.7H47.2l-1.1-12.2H64V42.6H34.7l.3 3.7 3.1 34.7H64z"/><path fill="#fff" d="M64 94.1l-.1.1-15.2-4.1-1-11.2H35.7l1.9 21.2 26.3 7.3.1-.1z"/><path fill="#fff" d="M64 66.7v12.1h14.7l-1.4 15.7-13.3 3.7v12.1l26.3-7.3.2-2.2 3-33.2.3-3.7H64z"/><path fill="#EBEBEB" d="M64 42.6V54.5h27.7l.2-2.2.5-5.6.3-3.7z"/></svg> 