<svg xmlns="http://www.w3.org/2000/svg" viewBox="0 0 128 128"><path fill="#F7DF1E" d="M1.408 1.408h125.184v125.185H1.408z"/><path d="M116.042 116.042H11.958V11.958h104.084z" fill="#F7DF1E"/><path d="M67.617 104.6c0 8.1-4.8 11.8-11.8 11.8-6.3 0-10-3.2-11.9-7.1l6.5-3.9c1.2 2.1 2.3 3.9 4.9 3.9 2.5 0 4.1-1 4.1-5.1V70.7h7.1zm18.2 11.8c-7.3 0-12-3.5-14.3-8.1l6.5-3.8c1.7 2.8 3.9 4.8 7.8 4.8 3.3 0 5.4-1.6 5.4-3.8 0-2.6-2.1-3.5-5.7-5l-2-0.9c-5.8-2.5-9.7-5.6-9.7-12.1 0-6 4.6-10.6 11.8-10.6 5.1 0 8.8 1.8 11.4 6.4l-6.2 4c-1.4-2.5-2.9-3.5-5.2-3.5-2.4 0-3.9 1.5-3.9 3.5 0 2.4 1.5 3.3 5 4.8l2 0.9c6.8 2.9 10.7 5.9 10.7 12.6.1 7.2-5.6 11.2-13.1 11.2z"/></svg> 