<svg xmlns="http://www.w3.org/2000/svg" viewBox="0 0 128 128"><g><path fill="#5382A1" d="M47.6 99.2s-4.2 2.5 3 3.3c8.7 1 13.2.8 22.9-.9 0 0 2.5 1.6 6 3-21.4 9.2-48.5-.5-39.9-3.4zM45.2 86.2s-4.7 3.5 2.5 4.2c9.3.9 16.6 1 29.3-1.4 0 0 1.7 1.7 4.4 2.6-25.3 7.4-53.6.6-43.7-2.4z"/><path fill="#E76F00" d="M69.7 61.7c5.3 6.1-1.4 11.6-1.4 11.6s13.5-7 7.3-15.8c-5.8-8.1-10.3-12.1 14-25.9 0 0-38.3 9.6-20.1 30.1z"/><path fill="#5382A1" d="M97.2 107.6s3.9 3.2-4.3 5.7c-15.6 4.7-65 .6-52.7-5.2 4.2-2.1 8.3-1.8 8.3-1.8-9.5-6.7-61.3 13.1-26.4 18.8 48.1 7.8 87.7-3.5 95.2-6.8 6.1-2.6-8.2-10.5-20.1-10.7z"/><path fill="#E76F00" d="M54.7 74.2c0 0-4.1 2.4 2.2 3.2 8.3 1.1 14.9 1.2 25.9-.9 0 0 1.7 1.7 4.3 2.6-24.7 7.2-52.2.6-43.6-2.4 4.2-1.4 8.2-1.2 8.2-1.2z"/><path fill="#5382A1" d="M80.6 70.7c25.1-13 13.5-25.5 5.4-23.8-2.1.4-3.1.8-3.1.8s.8-1.3 2.4-1.8c17.9-6.3 31.6 18.5-5.7 25.5z"/><path fill="#5382A1" d="M52.2 52.6c0 0-27.2 6.5-9.6 8.9 7.4 1 22.2.8 36.1-.4 11.3-.9 22.6-2.8 22.6-2.8s-4 1.7-6.9 3.6c-27.7 7.3-81.2 3.9-65.8-3.6 13-6.1 23.6-5.3 23.6-5.3z"/><path fill="#E76F00" d="M90.2 81.6c25.2-6.5 13.5-12.8 5.4-12.1-2.1.2-3.1.4-3.1.4s.8-.7 2.4-1c17.9-3.5 31.6 10.2-5.7 12.7z"/></g></svg> 