<svg xmlns="http://www.w3.org/2000/svg" viewBox="0 0 128 128"><g><path fill="#3776AB" d="M63.6 0C56.2.1 49.2.6 43.1 2c-8.2 1.8-13.2 5.4-13.2 11.1v10.2h26.4v3.4H24.7c-6.2 0-11.6 3.7-13.2 10.8-2.1 8.7-2.2 14.1 0 23.2 1.5 6.2 5.1 10.8 11.3 10.8h10.2v-13.6c0-6.9 6-13.1 13.2-13.1h26.3c5.9 0 10.7-4.8 10.7-10.7V13.1c0-5.7-4.7-9.3-13.2-11.1C78.8.6 71.8.1 64.4 0zm-16.2 8.2c2.7 0 4.9 2.2 4.9 4.9s-2.2 4.9-4.9 4.9-4.9-2.2-4.9-4.9 2.2-4.9 4.9-4.9z"/><path fill="#FFD43B" d="M64.4 128c7.4-.1 14.4-.6 20.5-2 8.2-1.8 13.2-5.4 13.2-11.1v-10.2H71.7v-3.4h26.4c6.2 0 11.6-3.7 13.2-10.8 2.1-8.7 2.2-14.1 0-23.2-1.5-6.2-5.1-10.8-11.3-10.8h-10.2v13.6c0 6.9-6 13.1-13.2 13.1H49.9c-5.9 0-10.7 4.8-10.7 10.7v13.1c0 5.7 4.7 9.3 13.2 11.1 6.1 1.4 13.1 1.9 20.5 2zm16.2-8.2c-2.7 0-4.9-2.2-4.9-4.9s2.2-4.9 4.9-4.9 4.9 2.2 4.9 4.9-2.2 4.9-4.9 4.9z"/></g></svg> 